# xmcd
#
# Track frame offsets: 
#        300
#        810
#        16671
#        35170
#        38660
#        55291
#        72821
#        88772
#        102473
#        120189
#        124423
#        131420
#        144453
#        147901
#        173862
#        195814
#        201469
#        217148
#        238480
#
# Disc length: 3521 seconds
#
# Revision: 0
# Processed by: cddbd v1.5.2PL0 Copyright (c) Steve Scherf et al.
# Submitted via: ExactAudioCopyFreeDBPlugin 1.0
#
DISCID=110dbd13
DTITLE=Childish Gambino - Because The Internet
DYEAR=2013
DGENRE=Rap
TTITLE0=The Library (Intro)
TTITLE1=Crawl
TTITLE2=WORLDSTAR
TTITLE3=Dial Up
TTITLE4=The Worst Guys Feat. Chance The Rapper
TTITLE5=Shadows
TTITLE6=Telegraph Ave. (Oakland by Lloyd)
TTITLE7=Sweatpants
TTITLE8=3005
TTITLE9=Playing Around Before The Party Starts
TTITLE10=The Party
TTITLE11=No Exit
TTITLE12=Death By Numbers
TTITLE13=Flight Of The Navigator
TTITLE14=Zealots of Stockholm (Free Information)
TTITLE15=Urn
TTITLE16=Pink Toes Feat. Jhene Aiko
TTITLE17=Earth The Oldest Computer (Last Night) Feat. Azealia Banks
TTITLE18=Life The Biggest Troll (Andrew Auernheimer) Feat. Donald Glov
TTITLE18=er
EXTD=
EXTT0=
EXTT1=
EXTT2=
EXTT3=
EXTT4=
EXTT5=
EXTT6=
EXTT7=
EXTT8=
EXTT9=
EXTT10=
EXTT11=
EXTT12=
EXTT13=
EXTT14=
EXTT15=
EXTT16=
EXTT17=
EXTT18=
PLAYORDER=
